<svg width="71" height="71" viewBox="0 0 71 71" fill="none" xmlns="http://www.w3.org/2000/svg">
<g clip-path="url(#clip0_105_190)">
<path d="M51.5891 54.1896C56.6096 49.8588 59.7041 43.7109 60.1919 37.0985C60.6796 30.486 58.5205 23.9506 54.1897 18.9301C49.8588 13.9095 43.7109 10.815 37.0985 10.3273C30.486 9.83958 23.9507 11.9986 18.9301 16.3295C13.9095 20.6603 10.815 26.8082 10.3273 33.4207C9.83959 40.0331 11.9986 46.5685 16.3295 51.5891C20.6603 56.6096 26.8082 59.7041 33.4207 60.1918C40.0331 60.6796 46.5685 58.5205 51.5891 54.1896ZM46.1705 34.4978C46.3777 34.5095 46.5804 34.5623 46.7669 34.6531C46.9535 34.744 47.12 34.8711 47.2569 35.027C47.3938 35.1829 47.4982 35.3645 47.5642 35.5612C47.6301 35.758 47.6562 35.9658 47.641 36.1728C47.6257 36.3797 47.5694 36.5815 47.4753 36.7664C47.3812 36.9513 47.2512 37.1156 47.093 37.2498C46.9347 37.3839 46.7513 37.4852 46.5535 37.5477C46.3556 37.6102 46.1473 37.6327 45.9407 37.6139L27.8878 36.2824L33.5378 42.8322C33.8085 43.146 33.9434 43.5544 33.9129 43.9677C33.8825 44.381 33.6891 44.7652 33.3753 45.0359C33.0615 45.3066 32.653 45.4415 32.2397 45.411C31.8265 45.3805 31.4422 45.1871 31.1715 44.8734L23.0578 35.4675C22.7872 35.1537 22.6522 34.7452 22.6827 34.332C22.7132 33.9187 22.9066 33.5344 23.2204 33.2638L32.6263 25.15C32.94 24.8794 33.3485 24.7444 33.7618 24.7749C34.1751 24.8054 34.5593 24.9988 34.83 25.3126C35.1007 25.6264 35.2356 26.0348 35.2051 26.4481C35.1746 26.8614 34.9812 27.2456 34.6674 27.5163L28.1176 33.1663L46.1705 34.4978V34.4978Z" fill="#180A0A"/>
</g>
<defs>
<clipPath id="clip0_105_190">
<rect width="50" height="50" fill="white" transform="translate(37.8602) rotate(49.2182)"/>
</clipPath>
</defs>
</svg>
