<svg width="71" height="71" viewBox="0 0 71 71" fill="none" xmlns="http://www.w3.org/2000/svg">
<g clip-path="url(#clip0_105_192)">
<path d="M16.3288 18.9306C11.9981 23.9513 9.83928 30.4868 10.3272 37.0992C10.8151 43.7116 13.9098 49.8594 18.9305 54.1901C23.9512 58.5208 30.4866 60.6797 37.0991 60.1918C43.7115 59.7039 49.8593 56.6092 54.19 51.5885C58.5207 46.5678 60.6795 40.0323 60.1916 33.4199C59.7037 26.8075 56.609 20.6597 51.5883 16.329C46.5676 11.9983 40.0322 9.83942 33.4198 10.3273C26.8073 10.8152 20.6595 13.9099 16.3288 18.9306ZM24.5784 37.6142C24.3717 37.633 24.1634 37.6106 23.9656 37.5481C23.7678 37.4856 23.5844 37.3843 23.4261 37.2501C23.2678 37.116 23.1378 36.9517 23.0437 36.7668C22.9496 36.5818 22.8933 36.38 22.8781 36.1731C22.8628 35.9662 22.8889 35.7583 22.9548 35.5616C23.0207 35.3649 23.1252 35.1833 23.2621 35.0274C23.3989 34.8714 23.5655 34.7443 23.752 34.6535C23.9385 34.5626 24.1413 34.5098 24.3484 34.4981L42.4013 33.1661L35.8513 27.5163C35.5375 27.2456 35.3441 26.8614 35.3136 26.4481C35.2831 26.0348 35.418 25.6263 35.6887 25.3126C35.9594 24.9988 36.3436 24.8053 36.7569 24.7748C37.1702 24.7443 37.5786 24.8793 37.8924 25.1499L47.2986 33.2634C47.6124 33.534 47.8058 33.9183 47.8363 34.3316C47.8668 34.7448 47.7318 35.1533 47.4612 35.4671L39.3477 44.8732C39.0771 45.187 38.6928 45.3804 38.2796 45.4109C37.8663 45.4414 37.4578 45.3065 37.144 45.0358C36.8302 44.7652 36.6368 44.3809 36.6063 43.9676C36.5758 43.5544 36.7107 43.1459 36.9814 42.8321L42.6312 36.2821L24.5784 37.6142V37.6142Z" fill="#180A0A"/>
</g>
<defs>
<clipPath id="clip0_105_192">
<rect width="50" height="50" fill="white" transform="translate(37.8611 70.519) rotate(-139.22)"/>
</clipPath>
</defs>
</svg>
