<svg width="100" height="100" viewBox="0 0 100 100" fill="none" xmlns="http://www.w3.org/2000/svg">
<g clip-path="url(#clip0_105_147)">
<path fill-rule="evenodd" clip-rule="evenodd" d="M20.7708 8.33331C15.0625 8.33331 10.8417 13.3291 11.0333 18.7416C11.2125 23.95 10.9792 30.6875 9.28333 36.1833C7.575 41.6916 4.7 45.1833 0 45.6333V50.6958C4.7 51.1416 7.57917 54.6333 9.27917 60.1458C10.9792 65.6416 11.2125 72.3791 11.0292 77.5833C10.8417 83 15.0625 87.9958 20.7708 87.9958H79.2375C84.9458 87.9958 89.1667 83 88.975 77.5833C88.7958 72.3791 89.0292 65.6416 90.725 60.1458C92.4292 54.6333 95.3 51.1458 100 50.6958V45.6333C95.3 45.1833 92.4292 41.6916 90.725 36.1833C89.0292 30.6833 88.7958 23.9458 88.975 18.7416C89.1667 13.325 84.9417 8.33331 79.2375 8.33331H20.7708ZM67.7917 57.3708C67.7917 64.8291 62.2292 69.35 53 69.35H37.2875C36.8377 69.35 36.4064 69.1713 36.0884 68.8533C35.7703 68.5352 35.5917 68.1039 35.5917 67.6541V28.6708C35.5928 28.2218 35.7719 27.7915 36.0898 27.4744C36.4077 27.1572 36.8385 26.9791 37.2875 26.9791H52.9125C60.6083 26.9791 65.6625 31.1458 65.6625 37.55C65.6625 42.0416 62.2625 46.0625 57.9333 46.7708V47.0041C63.8292 47.65 67.7958 51.7333 67.7958 57.3708H67.7917ZM51.2917 32.35H42.3333V45.0083H49.8792C55.7125 45.0083 58.9292 42.6583 58.9292 38.4583C58.9292 34.525 56.1625 32.35 51.2917 32.35ZM42.3333 50.0291V63.975H51.625C57.6958 63.975 60.9167 61.5375 60.9167 56.9583C60.9167 52.375 57.6083 50.0291 51.2333 50.0291H42.3333V50.0291Z" fill="#F5F5F5"/>
</g>
<defs>
<clipPath id="clip0_105_147">
<rect width="100" height="100" fill="white"/>
</clipPath>
</defs>
</svg>
