<svg width="150" height="150" viewBox="0 0 150 150" fill="none" xmlns="http://www.w3.org/2000/svg">
<g clip-path="url(#clip0_105_144)">
<path d="M46.8875 0H63V6.7375H53.625V13.475H63V20.2125H46.8875V0ZM66.2188 0H82.3375V5.8625H72.9625V7.03125H82.3375V20.5062H66.2188V14.3562H75.5938V13.1812H66.2188V0ZM85.5625 0H101.669V5.8625H92.2937V7.03125H101.669V20.5062H85.5625V14.3562H94.9375V13.1812H85.5625V0Z" fill="#F5F5F5"/>
<path fill-rule="evenodd" clip-rule="evenodd" d="M74.9438 150L31.5438 137.95L18.75 29.4813H131.25L118.463 137.938L74.9438 150ZM44.0438 78.5813L45.2375 91.8813H91.3438L89.8 109.131L74.9625 113.144H74.95L60.1375 109.144L59.1875 98.5375H45.8313L47.6938 119.425L74.9438 126.988L102.238 119.425L105.562 82.15L105.887 78.5813L108.288 51.65H41.65L42.8625 64.9563H93.7125L92.5 78.5813H44.0438V78.5813Z" fill="#F5F5F5"/>
</g>
<defs>
<clipPath id="clip0_105_144">
<rect width="150" height="150" fill="white"/>
</clipPath>
</defs>
</svg>
