<svg width="150" height="150" viewBox="0 0 150 150" fill="none" xmlns="http://www.w3.org/2000/svg">
<g clip-path="url(#clip0_105_168)">
<path d="M147.169 68.3156L81.675 2.83122C80.7783 1.93405 79.7136 1.22235 78.5417 0.736777C77.3698 0.251206 76.1138 0.00128174 74.8453 0.00128174C73.5768 0.00128174 72.3208 0.251206 71.1489 0.736777C69.9771 1.22235 68.9123 1.93405 68.0156 2.83122L54.4219 16.425L71.6719 33.675C73.7063 32.9804 75.895 32.8717 77.9882 33.3614C80.0814 33.851 81.9948 34.9193 83.51 36.4443C85.0252 37.9692 86.0811 39.8895 86.5573 41.9858C87.0335 44.0821 86.9108 46.2701 86.2031 48.3L102.825 64.9312C105.284 64.0653 107.965 64.0627 110.426 64.9238C112.887 65.7848 114.981 67.4582 116.364 69.6684C117.747 71.8786 118.336 74.4938 118.034 77.0834C117.732 79.6731 116.557 82.0827 114.703 83.9156C112.826 85.8041 110.352 86.9824 107.702 87.2491C105.053 87.5158 102.393 86.8545 100.178 85.378C97.9618 83.9016 96.3273 81.7016 95.5534 79.1539C94.7795 76.6062 94.9142 73.8688 95.9344 71.4093L80.4375 55.9031V96.7125C82.793 97.8784 84.6778 99.8165 85.7776 102.204C86.8775 104.591 87.1259 107.283 86.4816 109.831C85.8373 112.379 84.3391 114.629 82.2368 116.207C80.1345 117.784 77.555 118.594 74.9284 118.5C72.3017 118.406 69.7865 117.415 67.8021 115.691C65.8177 113.968 64.4838 111.616 64.0229 109.029C63.562 106.441 64.0019 103.774 65.2692 101.471C66.5366 99.1686 68.5548 97.3699 70.9875 96.375V55.1906C69.584 54.6155 68.3081 53.7682 67.2336 52.6977C66.159 51.6272 65.3069 50.3546 64.7265 48.9532C64.1461 47.5519 63.8488 46.0495 63.8518 44.5327C63.8547 43.0159 64.1579 41.5147 64.7437 40.1156L47.7469 23.1093L2.84062 68.0156C1.94345 68.9123 1.23175 69.977 0.746176 71.1489C0.260606 72.3208 0.0106812 73.5768 0.0106812 74.8453C0.0106812 76.1138 0.260606 77.3698 0.746176 78.5417C1.23175 79.7135 1.94345 80.7782 2.84062 81.675L68.3344 147.169C69.2311 148.066 70.2958 148.778 71.4677 149.263C72.6395 149.749 73.8956 149.999 75.1641 149.999C76.4325 149.999 77.6886 149.749 78.8604 149.263C80.0323 148.778 81.097 148.066 81.9937 147.169L147.178 81.9843C148.988 80.1721 150.004 77.7157 150.004 75.1547C150.004 72.5936 148.988 70.1372 147.178 68.325" fill="#F5F5F5"/>
</g>
<defs>
<clipPath id="clip0_105_168">
<rect width="150" height="150" fill="white"/>
</clipPath>
</defs>
</svg>
