<svg width="150" height="150" viewBox="0 0 150 150" fill="none" xmlns="http://www.w3.org/2000/svg">
<g clip-path="url(#clip0_105_139)">
<path d="M31.75 0H38.5125V6.68125H44.7V0H51.4625V20.225H44.7V13.4563H38.5125V20.225H31.7562V0H31.75ZM60.35 6.70625H54.4V0H73.0688V6.70625H67.1125V20.225H60.35V6.70625V6.70625ZM76.0313 0H83.0813L87.4188 7.10625L91.75 0H98.8V20.225H92.0688V10.2L87.4188 17.3938H87.3L82.6437 10.2063V20.225H76.0313V0V0ZM102.163 0H108.931V13.5438H118.431V20.2313H102.163V0V0Z" fill="#F5F5F5"/>
<path fill-rule="evenodd" clip-rule="evenodd" d="M31.5375 137.95L18.75 29.4813H131.25L118.456 137.938L74.9375 150L31.5375 137.95ZM57.3937 78.575L56.1813 64.95H107.088L108.275 51.65H41.65L45.2375 91.8813H91.3437L89.8 109.131L74.9625 113.144H74.95L60.1375 109.144L59.1875 98.5375H45.825L47.6875 119.425L74.9375 126.988L102.231 119.425L105.556 82.15L105.881 78.5813H57.3937V78.575Z" fill="#F5F5F5"/>
</g>
<defs>
<clipPath id="clip0_105_139">
<rect width="150" height="150" fill="white"/>
</clipPath>
</defs>
</svg>
