<svg width="231" height="366" viewBox="0 0 231 366" fill="none" xmlns="http://www.w3.org/2000/svg">
<path fill-rule="evenodd" clip-rule="evenodd" d="M111.756 41.6848C107.927 37.2193 105.336 31.7468 105.769 25.6147C107.016 7.94643 131.771 11.8332 136.586 20.7506C141.401 29.6681 140.829 52.2878 134.606 53.8816C132.124 54.5172 126.837 52.9603 121.456 49.7378L124.834 73.4786H104.891L111.756 41.6848Z" fill="#916135"/>
<path fill-rule="evenodd" clip-rule="evenodd" d="M97.0741 19.7333C96.43 19.0991 96.0786 18.1938 95.7746 17.3343C95.459 16.4414 95.1523 15.5393 94.9427 14.6099C94.524 12.7529 94.52 10.6174 95.8533 9.17544C96.9227 8.01915 98.5271 7.50052 100.008 7.38781C100.994 7.31264 102.008 7.44991 102.953 7.75881C103.892 8.06523 104.701 8.67595 105.61 9.055C105.645 7.05386 105.99 4.95997 107.012 3.25129C107.995 1.60726 109.563 0.68469 111.348 0.440616C113.18 0.190135 114.99 0.616175 116.63 1.49759C117.041 1.71833 117.448 1.94959 117.837 2.21132C118.163 2.4305 118.502 2.69446 118.885 2.78359C119.311 2.88308 119.523 2.63835 119.8 2.32921C120.125 1.96676 120.491 1.64751 120.879 1.3645C122.592 0.113322 124.84 -0.401114 126.825 0.348852C127.739 0.694384 128.628 1.2812 129.249 2.08982C129.802 2.81062 130.196 3.95402 130.96 4.45621C131.283 4.6694 131.512 4.38696 131.807 4.17821C132.25 3.86455 132.673 3.51845 133.121 3.21333C133.751 2.78466 134.433 2.46402 135.163 2.29619C136.232 2.05047 137.709 2.10806 138.015 3.49906C138.129 4.02154 138.041 4.58034 138.004 5.10677C137.953 5.82963 137.9 6.55224 137.837 7.27403C137.789 7.82206 137.728 8.35137 137.624 8.88955C137.569 9.17642 137.395 9.71123 137.519 9.99852C137.674 10.3576 138.388 10.1535 138.693 10.1659C139.295 10.1907 139.901 10.2957 140.458 10.5515C140.89 10.7498 141.344 11.0414 141.526 11.5332C141.638 11.8353 141.608 12.1456 141.555 12.4563C141.492 12.8293 141.565 13.0271 141.612 13.4035C142.421 13.0075 145.226 12.1277 145.579 13.5689C145.696 14.0487 145.429 14.5909 145.225 14.9956C144.867 15.7054 144.397 16.3541 143.917 16.9728C142.916 18.2635 141.722 19.3768 140.436 20.3288C141.942 20.9942 142.335 22.9567 141.031 24.126C140.455 24.6422 139.681 24.7571 138.955 24.7241C138.689 24.712 138.306 24.6105 138.096 24.6565C137.984 24.6812 137.863 24.776 137.707 24.7866C136.682 24.8564 135.525 24.611 134.523 24.385C132.737 23.9823 131.047 23.1418 129.667 21.8617C129.312 21.5333 129.02 21.3443 128.543 21.3491C128.126 21.3533 127.716 21.4671 127.298 21.4776C126.194 21.5056 125.199 20.9694 124.174 20.6124C124.111 21.9885 123.716 23.5042 123.15 24.7422C122.688 25.7518 121.723 25.8985 120.775 25.987C117.743 26.2705 114.701 25.9542 111.665 25.9584C114.603 26.6183 117.64 26.8903 120.553 27.6669C121.869 28.0178 120.864 28.8994 120.301 29.5105C119.374 30.5169 118.685 31.7638 118.207 33.0774C116.769 31.2157 114.228 29.989 111.977 30.5609C109.49 31.1928 107.739 34.5346 109.329 36.9372C110.253 38.3319 111.92 38.8703 113.307 39.4695C112.225 40.5876 111.963 42.2389 111.312 43.6299C110.991 44.3159 110.539 45.0915 109.821 45.3306C109.555 45.4191 109.243 45.4266 109.034 45.6419C108.774 45.9085 108.712 46.2066 108.38 46.4357C107.056 47.3502 104.988 47.2797 103.815 46.0863C102.754 45.007 103.03 43.299 103.916 42.2048C102.505 41.6205 99.9348 40.8691 100.495 38.6853C97.4385 38.4836 90.0161 33.5576 94.1191 29.958C91.8673 28.6936 89.7986 25.6036 91.245 22.8796C92.3588 20.7821 94.9489 19.8445 97.0741 19.7333Z" fill="#191847"/>
<path fill-rule="evenodd" clip-rule="evenodd" d="M95.9854 152.26L139.264 266.04L169.6 349.902H186.897L145.198 152.26L95.9854 152.26Z" fill="#CF5E1F"/>
<path fill-rule="evenodd" clip-rule="evenodd" d="M85.2889 152.26C84.8184 191.3 85.1585 243.862 84.0624 246.295C83.3317 247.918 60.6025 266.403 15.8751 301.75L24.7907 316.813C77.8925 282.79 105.801 263.511 108.516 258.978C112.588 252.179 133.047 189.609 143.691 152.26H85.2889Z" fill="#C95827"/>
<path fill-rule="evenodd" clip-rule="evenodd" d="M0.190757 312.907L16.3396 300.483L28.109 314.518C28.4935 325.537 31.5729 337.758 37.3471 351.182L34.3779 353.675L13.081 328.279L7.27982 318.343L5.79521 319.59L0.190757 312.907Z" fill="#191847"/>
<path fill-rule="evenodd" clip-rule="evenodd" d="M167.994 366L168.895 347.219H187.797C196.76 353.48 208.461 358.547 222.901 362.423V366H188.697L176.996 364.211V366H167.994Z" fill="#191847"/>
<path fill-rule="evenodd" clip-rule="evenodd" d="M173.393 116.754L208.932 111.937C216.041 108.008 222.581 105.349 228.552 103.958C230.233 103.909 232.906 104.516 228.924 107.815C224.941 111.113 220.901 114.762 221.61 116.522C222.32 118.282 226.023 117.627 226.637 120.335C227.046 122.14 221.035 122.433 208.606 121.214L179.769 132.573L173.393 116.754ZM61.7512 124.927L81.4613 125C59.8486 173.323 48.5794 198.624 47.6537 200.904C45.5709 206.032 49.9784 213.843 51.8632 218.04C45.7244 220.769 46.3785 210.662 38.6345 214.241C31.5662 217.509 26.1894 223.429 18.0229 218.422C17.0189 217.807 15.9187 215.489 18.577 213.678C25.1998 209.166 34.7437 201.27 36.0332 198.67C37.7917 195.126 46.3644 170.545 61.7512 124.927Z" fill="#916135"/>
<path fill-rule="evenodd" clip-rule="evenodd" d="M115.74 62.8171L131.172 63.8385C134.973 98.0023 155.675 119.581 202.026 112.276L208.184 156.271C164.862 161.834 126.868 144.602 119.082 97.9442C117.066 85.8661 115.475 73.2964 115.74 62.8171Z" fill="#FCDDEC"/>
<path fill-rule="evenodd" clip-rule="evenodd" d="M108.126 58.3598L131.508 63.6803C131.508 103.637 144.319 129.131 150.89 158.508H87.7409C86.8514 168.66 86.3051 179.093 86.0205 189.809H38.7369C49.4516 133.167 72.0668 89.3459 106.582 58.3455H108.114L108.126 58.3598Z" fill="#FCDDEC"/>
<path fill-rule="evenodd" clip-rule="evenodd" d="M97.7041 101.504C96.0767 126.403 97.0338 145.404 100.575 158.508H87.7409C89.5031 138.399 92.6125 119.397 97.7041 101.504L97.7041 101.504Z" fill="black" fill-opacity="0.1"/>
</svg>
