<svg width="150" height="150" viewBox="0 0 150 150" fill="none" xmlns="http://www.w3.org/2000/svg">
<path fill-rule="evenodd" clip-rule="evenodd" d="M0 0H150V150H0V0ZM114.669 125.75C107.713 125.75 103.781 122.125 100.762 117.188L89.3062 123.844C93.4437 132.019 101.9 138.256 114.994 138.256C128.381 138.256 138.35 131.306 138.35 118.613C138.35 106.844 131.588 101.613 119.613 96.4688L116.087 94.9625C110.037 92.3375 107.419 90.6313 107.419 86.4C107.419 82.9813 110.044 80.3625 114.169 80.3625C118.213 80.3625 120.819 82.0688 123.238 86.4L134.213 79.3562C129.569 71.1875 123.131 68.0687 114.169 68.0687C101.581 68.0687 93.525 76.1188 93.525 86.6938C93.525 98.1625 100.275 103.594 110.45 107.925L113.975 109.438C120.406 112.25 124.238 113.962 124.238 118.794C124.238 122.831 120.506 125.75 114.669 125.75V125.75ZM60.0438 125.656C55.2 125.656 53.1812 122.344 50.9687 118.406L39.4937 125.356C42.8187 132.394 49.3562 138.231 60.6375 138.231C73.1312 138.231 81.6875 131.587 81.6875 116.994V68.8688H67.5937V116.806C67.5937 123.85 64.6687 125.656 60.0375 125.656H60.0438Z" fill="#F5F5F5"/>
</svg>
