<svg width="250" height="57" viewBox="0 0 250 57" fill="none" xmlns="http://www.w3.org/2000/svg">
<g clip-path="url(#clip0_105_153)">
<path fill-rule="evenodd" clip-rule="evenodd" d="M239.12 4.22168L249.579 4.2793C249.579 4.2793 230.134 30.6289 228.546 32.7763C228.03 33.4716 227.247 34.2216 226.849 35.1513C225.845 37.4882 224.814 42.6147 224.814 42.6147L215.244 42.6625C215.244 42.6625 216.733 37.3188 216.672 34.4726C216.618 31.9863 215.348 29.5029 214.637 27.0092C213.917 24.4848 212.94 19.5454 212.94 19.5454H222.779L224.136 24.9736L239.12 4.22168" fill="#F5F5F5"/>
<path fill-rule="evenodd" clip-rule="evenodd" d="M219.315 9.77882C221.245 10.9424 222.43 17.3613 222.43 17.3613C222.43 17.3613 212.33 17.5102 206.834 17.5102H202.084L196.317 42.6147H187.496C187.496 42.6147 192.986 15.3325 194.282 10.3862C194.702 8.78468 197.159 9.05958 201.307 9.05958H207.933C212.211 9.05958 217.212 8.51319 219.315 9.77882V9.77882ZM178.252 22.0054C178.252 22.0054 178.527 20.394 177.319 18.5278C176.287 16.937 175.335 16.5669 172.621 16.4819C164.957 16.2412 165.106 21.9204 165.106 21.9204L178.252 22.0054ZM186.563 15.5015C187.686 19.5527 185.546 29.0718 185.546 29.0718C185.546 29.0718 174.367 28.8852 168.244 29.0718C166.34 29.1299 164.061 28.8647 163.495 29.7505C162.697 30.9917 163.786 32.9023 164.709 33.7094C165.771 34.6386 167.84 34.7446 168.583 34.8388C173.553 35.4702 183.954 35.0019 183.954 35.0019L182.153 42.9804C182.153 42.9804 167.454 43.7177 160.102 41.9628C158.65 41.6171 157.289 40.9184 156.37 39.9277C156.119 39.6567 155.901 39.2871 155.664 38.9677C155.475 38.7129 154.922 37.8755 154.674 37.2133C152.995 32.7387 154.871 24.1665 156.709 19.5727C156.923 19.0405 157.191 18.3652 157.473 17.7915C157.826 17.0762 158.124 16.2686 158.406 15.8408C158.595 15.5459 158.83 15.356 159.027 15.0776C159.254 14.7485 159.518 14.4297 159.763 14.145C160.441 13.3579 161.211 12.8013 162.138 12.1099C165.201 9.81593 170.744 8.03517 177.404 8.71681C179.911 8.97462 183.698 9.87013 185.546 12.4487C186.041 13.1372 186.286 14.5044 186.563 15.502V15.5015ZM146.108 9.02833L154.661 8.97804C154.661 8.97804 149.894 31.5888 147.465 42.6147H137.626C130.75 42.6147 124.626 43.4663 122.021 38.5434C119.494 33.7636 121.906 25.9033 123.039 20.563C123.839 16.7837 125.526 9.05909 125.526 9.05909L134.387 8.97804C134.387 8.97804 131.883 21.0044 130.841 27.0093C130.468 29.1601 129.699 31.1855 130.502 32.7759C131.266 34.2895 132.334 34.3979 135.591 34.4726C136.623 34.497 140.001 34.4726 140.001 34.4726L146.108 9.02833V9.02833ZM106.076 25.3125C106.972 22.1308 108.278 18.6807 108.112 15.8135C107.932 12.7471 105.361 9.95509 103.702 9.36817C98.7046 7.60402 94.0264 10.0703 92.167 12.082C89.7618 14.6875 88.9473 17.731 88.0957 21.9209C87.462 25.0312 86.9424 28.3149 88.0957 30.7407C90.1377 35.0293 96.5059 34.0927 103.362 34.1338C104.38 31.4062 105.221 28.3428 106.076 25.3125V25.3125ZM117.95 12.7607C118.927 19.8643 115.179 27.7051 112.597 34.5234C115.229 34.7612 117.537 34.4868 117.703 34.6831C117.875 34.9375 115.938 42.8217 115.263 42.8422C113.173 42.8964 106.25 42.9541 103.362 42.9541C93.941 42.9541 85.1275 43.5678 80.6329 38.8833C78.8077 36.9799 77.5455 33.7158 77.2398 31.4194C76.731 27.5859 77.3687 23.3652 78.2579 19.8852C79.0621 16.7432 80.0928 13.7783 81.6504 11.064C85.6094 4.15383 92.4961 -0.975561 104.041 0.208519C106.28 0.438988 109.496 1.41945 111.504 2.58303C111.643 2.66457 112.129 3.05129 112.24 3.11916C114.955 4.84621 117.428 8.96778 117.95 12.7607V12.7607ZM76.2662 9.06934C75.6964 11.6646 75.1265 14.6064 74.5259 17.1709H65.0269C65.7628 14.3281 66.3263 11.502 67.0626 9.02882C70.1021 9.02882 72.9283 9.06934 76.2667 9.06934H76.2662ZM64.6876 19.5459H73.8477C72.65 26.1748 70.2784 36.8676 68.4195 44.311C67.2559 48.9692 66.4791 52.3681 63.3307 54.8276C63.0489 55.0483 62.8863 54.9433 62.6519 55.1669C62.0719 55.7202 59.3883 56.3618 57.9029 56.5239C55.4874 56.7856 52.7564 56.558 49.7877 56.497C50.5646 53.6577 51.4435 50.248 52.1358 47.7031C59.3722 48.579 59.5553 41.7392 60.9561 35.1513C61.7667 31.3447 64.2232 21.0723 64.6876 19.5459" fill="#F5F5F5"/>
<path fill-rule="evenodd" clip-rule="evenodd" d="M43.3146 36.8481L43.1183 37.3564C39.7736 43.8701 33.8463 47.8666 25.3922 48.0429C21.4401 48.124 17.6745 47.1103 15.2145 46.0073C9.90594 43.623 5.44061 39.1992 3.00214 34.4731C-0.495902 27.6982 -1.12676 18.2734 6.14667 11.2344C6.25897 11.2344 5.26434 12.7607 5.37665 12.7607L5.17645 13.4121C-0.0647507 29.8217 16.0832 43.8837 31.7804 42.2753C35.5529 41.8891 40.3634 39.8232 43.3146 36.8481Z" fill="#F5F5F5"/>
<path fill-rule="evenodd" clip-rule="evenodd" d="M33.8156 30.0625C37.7648 30.0898 41.8898 28.2441 44.3326 25.6523C42.1954 31.0771 36.0075 34.5644 27.7096 33.455C20.7614 32.5254 14.1427 25.5337 13.4611 18.5283C12.9626 13.4292 14.7394 10.3862 17.6676 6.69531C16.6501 8.62549 16.2697 10.1147 16.175 11.0644C15.0627 22.0937 24.9855 30.0048 33.8156 30.0625" fill="#F5F5F5"/>
<path fill-rule="evenodd" clip-rule="evenodd" d="M43.9357 16.3638C43.3219 17.772 39.7872 20.4311 38.2262 20.7632C32.0451 22.0801 28.0866 19.1489 26.0129 15.8139C25.7047 15.3154 25.1349 13.9551 25.0329 13.6089C24.2287 10.8745 24.5983 6.73877 26.9972 4.59814C26.2746 6.63427 26.1691 8.99804 26.5495 10.5351C26.7799 11.4648 27.4821 13.0869 28.1847 14.1074C29.463 15.9668 30.2736 16.4184 31.9162 17.4053C32.6559 17.8496 33.4494 18.206 33.7921 18.3042C35.3493 18.7622 38.6369 19.9702 43.9362 16.3638" fill="#F5F5F5"/>
</g>
<defs>
<clipPath id="clip0_105_153">
<rect width="250" height="56.6405" fill="white"/>
</clipPath>
</defs>
</svg>
