<svg width="100" height="100" viewBox="0 0 100 100" fill="none" xmlns="http://www.w3.org/2000/svg">
<path d="M91.6667 75.0208C91.6667 77.3125 89.8084 79.1667 87.5209 79.1667H54.1459C53.0463 79.1667 51.9918 78.7299 51.2143 77.9524C50.4368 77.1749 50 76.1204 50 75.0208C50 73.9213 50.4368 72.8668 51.2143 72.0893C51.9918 71.3118 53.0463 70.875 54.1459 70.875H87.5209C89.8125 70.875 91.6667 72.7292 91.6667 75.0208V75.0208ZM91.6667 50C91.6667 52.2917 89.8084 54.1458 87.5209 54.1458H12.4792C11.3797 54.1458 10.3252 53.7091 9.54766 52.9316C8.77017 52.1541 8.33337 51.0996 8.33337 50C8.33337 48.9005 8.77017 47.846 9.54766 47.0685C10.3252 46.291 11.3797 45.8542 12.4792 45.8542H87.5209C89.8125 45.8542 91.6667 47.7125 91.6667 50V50ZM87.5209 29.125C88.6204 29.125 89.6749 28.6882 90.4524 27.9107C91.2299 27.1332 91.6667 26.0787 91.6667 24.9792C91.6667 23.8796 91.2299 22.8251 90.4524 22.0476C89.6749 21.2701 88.6204 20.8333 87.5209 20.8333H37.4792C36.9348 20.8333 36.3957 20.9406 35.8927 21.1489C35.3897 21.3573 34.9326 21.6627 34.5477 22.0476C34.1627 22.4326 33.8573 22.8896 33.649 23.3926C33.4406 23.8956 33.3334 24.4347 33.3334 24.9792C33.3334 25.5236 33.4406 26.0627 33.649 26.5657C33.8573 27.0687 34.1627 27.5257 34.5477 27.9107C34.9326 28.2957 35.3897 28.6011 35.8927 28.8094C36.3957 29.0178 36.9348 29.125 37.4792 29.125H87.5209Z" fill="#711A75"/>
</svg>
