<svg width="50" height="50" viewBox="0 0 50 50" fill="none" xmlns="http://www.w3.org/2000/svg">
<path d="M27.0834 4.22916V8.43749C36.2292 9.56249 42.7084 17.875 41.5834 27.0208C40.625 34.6042 34.6667 40.625 27.0834 41.5208V45.6875C38.5417 44.5417 46.875 34.375 45.7292 22.9167C44.7917 13.0208 36.9375 5.20832 27.0834 4.22916V4.22916ZM22.9167 4.29166C18.8542 4.68749 14.9792 6.24999 11.8125 8.87499L14.7917 11.9583C17.125 10.0833 19.9375 8.87499 22.9167 8.45832V4.29166V4.29166ZM8.87504 11.8125C6.27016 14.9736 4.66713 18.8397 4.27087 22.9167H8.43754C8.83337 19.9583 10 17.1458 11.8542 14.7917L8.87504 11.8125ZM4.29171 27.0833C4.70837 31.1667 6.31254 35.0208 8.89587 38.1875L11.8542 35.2083C10.0145 32.8533 8.84161 30.0471 8.45837 27.0833H4.29171V27.0833ZM14.7917 38.2708L11.8125 41.125C14.9683 43.7556 18.8319 45.3938 22.9167 45.8333V41.6667C19.953 41.2834 17.1467 40.1106 14.7917 38.2708V38.2708ZM30.3959 16.6667L25 22.0625L19.6042 16.6667L16.6667 19.6042L22.0625 25L16.6667 30.3958L19.6042 33.3333L25 27.9375L30.3959 33.3333L33.3334 30.3958L27.9375 25L33.3334 19.6042L30.3959 16.6667Z" fill="#F5F5F5"/>
</svg>
