<svg width="50" height="50" viewBox="0 0 50 50" fill="none" xmlns="http://www.w3.org/2000/svg">
<path d="M23.4375 3.125H26.5625V10.9375H23.4375V3.125ZM33.8875 13.9062L39.3656 8.42813L41.575 10.6375L36.0969 16.1156L33.8875 13.9062ZM39.0625 23.4375H46.875V26.5625H39.0625V23.4375ZM33.8875 36.0938L36.0969 33.8859L41.575 39.3641L39.3656 41.5734L33.8875 36.0938ZM23.4375 39.0625H26.5625V46.875H23.4375V39.0625ZM8.42813 39.3625L13.9062 33.8844L16.1156 36.0938L10.6391 41.5719L8.42813 39.3625ZM3.125 23.4375H10.9375V26.5625H3.125V23.4375ZM8.42969 10.6375L10.6391 8.42813L16.1172 13.9062L13.9062 16.1156L8.42969 10.6375ZM25 18.75C26.2361 18.75 27.4445 19.1166 28.4723 19.8033C29.5001 20.4901 30.3012 21.4662 30.7742 22.6082C31.2473 23.7503 31.3711 25.0069 31.1299 26.2193C30.8888 27.4317 30.2935 28.5453 29.4194 29.4194C28.5453 30.2935 27.4317 30.8888 26.2193 31.1299C25.0069 31.3711 23.7503 31.2473 22.6082 30.7742C21.4662 30.3012 20.4901 29.5001 19.8033 28.4723C19.1166 27.4445 18.75 26.2361 18.75 25C18.7521 23.343 19.4112 21.7545 20.5829 20.5829C21.7545 19.4112 23.343 18.7521 25 18.75V18.75ZM25 15.625C23.1458 15.625 21.3332 16.1748 19.7915 17.205C18.2498 18.2351 17.0482 19.6993 16.3386 21.4123C15.6291 23.1254 15.4434 25.0104 15.8051 26.829C16.1669 28.6475 17.0598 30.318 18.3709 31.6291C19.682 32.9402 21.3525 33.8331 23.171 34.1949C24.9896 34.5566 26.8746 34.3709 28.5877 33.6614C30.3007 32.9518 31.7649 31.7502 32.795 30.2085C33.8252 28.6668 34.375 26.8542 34.375 25C34.375 22.5136 33.3873 20.129 31.6291 18.3709C29.871 16.6127 27.4864 15.625 25 15.625Z" fill="black"/>
</svg>
